<?xml version="1.0" encoding="UTF-8"?>
<svg id="Layer_1" data-name="Layer 1" xmlns="http://www.w3.org/2000/svg" viewBox="0 0 171.68 276.48">
  <defs>
    <style>
      .cls-1 {
        fill: #231f20;
      }
    </style>
  </defs>
  <path class="cls-1" d="M170.54,30.62s0-.02,0-.03h0c-.52-1.34-1.23-2.64-2.19-3.84-2.11-2.64-6.79-6.62-10.97-4.84-8.51,4.43-3.36,18.49,6.52,17.43,1.73,0,4.12-.57,5.86-3.24-.89,6.81-1.07,10.2-1.22,10.95-9.48,34.47-27,119.82-33.94,146.99-3.22,14.42-24.24,41.39-38.62,23.09-4.84-6.8-5.01-15.41.5-21.3,11.25-13.97,36.96-19.08,39.29-38.94.61-5.14-.94-9.67-2.95-13.9-3.05-6.77.98-20.74-8.1-41.77l-18.89-43.83c-.82-1.91.58-4.04,2.66-4.04h4.39v-1.86h-40.21v1.86h4.25c2.87,0,5.46,1.69,6.63,4.3.86,1.91,1.96,4.23,3.31,7.03-6.46,14.68-35.27,11.53-45.91,6.03-8.7-5.19-11.08-13.47-11.04-21.8,0,0,0-48.08,0-48.08h34.66c12.34.68,39.67,16.49,46.4,26.83L106.77.84,0,0c1.87.75,4.72,2.16,7.55,4.75,3.01,2.76,4.7,5.69,5.59,7.55v36.9c1.73,11.81,18.63,26.02,30.03,27.73C15.75,86,1.81,122.06,19.57,150.38c21.88,30.63,83.83,33.23,94.27-13.96l.07-1.95c-.26-7.6-10.23-9.91-12.3-2.95-2.76,5.55,4,13.27,9.94,9.91-12.63,31.54-59.85,35.02-75.22,7.83-14.7-22.09-12.27-57.88,15.37-71.84,14.71-3.83,29.01-1.83,44.5,6.95,11.29,23.22,25.15,50.2,31,60.03,4.74,7.2,7.21,15.91,1.43,24.18-10.04,12.55-28.16,17.94-38.28,30.78-6.01,6.9-6.02,17.94,1.78,23.36,19.61,11.28,41.52-12.66,44.52-31.01,5.88-25.84,28.29-121.14,34.09-147.35.25-1.52.59-2.54.52-3.09.62-3.14.65-7.06-.73-10.67Z"/>
</svg>